# xmcd
#
# Track frame offsets: 
#        183
#        43081
#        64831
#        84176
#        115443
#        174338
#        187313
#        230357
#
# Disc length: 3397 seconds
#
# Revision: 6
# Processed by: cddbd v1.5.2PL0 Copyright (c) Steve Scherf et al.
# Submitted via: ExactAudioCopy v1.3
#
DISCID=680d4308
DTITLE=Leif Ove Andsnes, piano - Chopin Leif Ove Andsnes
DYEAR=1999
DGENRE=Classical
TTITLE0=Piano Sonata No. 1 in C minor, op. 4:  I. Allegro maestoso
TTITLE1=Piano Sonata No. 1 in C minor, op. 4:  II. Minuetto
TTITLE2=Piano Sonata No. 1 in C minor, op. 4:  III. Larghetto
TTITLE3=Piano Sonata No. 1 in C minor, op. 4:  IV. Finale:  Presto
TTITLE4=Piano Sonata No. 3 in B minor, op. 58:  I. Allegro maestoso
TTITLE5=Piano Sonata No. 3 in B minor, op. 58:  II. Scherzo:  Molto vi
TTITLE5=vace
TTITLE6=Piano Sonata No. 3 in B minor, op. 58:  III. Largo
TTITLE7=Piano Sonata No. 3 in B minor, op. 58:  IV. Finale:  Presto no
TTITLE7=n tanto
EXTD=Leif Ove Andsnes
EXTT0=
EXTT1=
EXTT2=
EXTT3=
EXTT4=
EXTT5=
EXTT6=
EXTT7=
PLAYORDER=
